<svg xmlns="http://www.w3.org/2000/svg" version="1.1" xmlns:xlink="http://www.w3.org/1999/xlink" xmlns:svgjs="http://svgjs.dev/svgjs" width="1440" height="560" preserveAspectRatio="none" viewBox="0 0 1440 560"><g mask="url(&quot;#SvgjsMask1019&quot;)" fill="none"><path d="M910.76 468.27L938.35 468.27L938.35 472.44L910.76 472.44z" stroke="rgba(9, 10, 24, 1)"></path><path d="M492.32 367.11 a23.03 23.03 0 1 0 46.06 0 a23.03 23.03 0 1 0 -46.06 0z" stroke="rgba(9, 10, 24, 1)"></path><path d="M933.6 301.83L951.29 301.83L951.29 319.52L933.6 319.52z" stroke="rgba(255, 255, 255, 1)"></path><path d="M316.01 60.37 a12.98 12.98 0 1 0 25.96 0 a12.98 12.98 0 1 0 -25.96 0z" fill="rgba(255, 255, 255, 1)"></path><path d="M604.49 357.15 a49.63 49.63 0 1 0 99.26 0 a49.63 49.63 0 1 0 -99.26 0z" stroke="rgba(255, 255, 255, 1)"></path><path d="M1151.26 154.18 a39.77 39.77 0 1 0 79.54 0 a39.77 39.77 0 1 0 -79.54 0z" fill="rgba(9, 10, 24, 1)"></path><path d="M526.68 298.51L526.93 298.51L526.93 298.76L526.68 298.76z" stroke="rgba(248, 162, 33, 1)"></path><path d="M295.81 477.08L329.47 477.08L329.47 513.86L295.81 513.86z" stroke="rgba(255, 255, 255, 1)"></path><path d="M201.93 384.16a20.38 20.38 0 1 0 39.59 9.7z" fill="rgba(9, 10, 24, 1)"></path><path d="M643.16 336.46 a31.9 31.9 0 1 0 63.8 0 a31.9 31.9 0 1 0 -63.8 0z" fill="rgba(255, 255, 255, 1)"></path><path d="M482.68 329.5L504.12 329.5L504.12 361.95L482.68 361.95z" stroke="rgba(9, 10, 24, 1)"></path><path d="M771.9 370.39L827.22 370.39L827.22 423.19L771.9 423.19z" fill="rgba(248, 162, 33, 1)"></path><path d="M1162.66 402.02a7.98 7.98 0 1 0 15.76-2.52z" stroke="rgba(9, 10, 24, 1)"></path><path d="M725.31 540.26 a10.8 10.8 0 1 0 21.6 0 a10.8 10.8 0 1 0 -21.6 0z" fill="rgba(255, 255, 255, 1)"></path><path d="M169.72 262L212.47 262L212.47 304.75L169.72 304.75z" stroke="rgba(255, 255, 255, 1)"></path><path d="M1162.16 506.6 a16.81 16.81 0 1 0 33.62 0 a16.81 16.81 0 1 0 -33.62 0z" fill="rgba(248, 162, 33, 1)"></path><path d="M173.04 134.44L177.56 134.44L177.56 140.12L173.04 140.12z" stroke="rgba(9, 10, 24, 1)"></path><path d="M1020.2 237.88a0.64 0.64 0 1 0-1.03 0.76z" fill="rgba(9, 10, 24, 1)"></path><path d="M808.25 408.88L824.45 408.88L824.45 437.98L808.25 437.98z" stroke="rgba(248, 162, 33, 1)"></path><path d="M1380.07 93.06L1397.18 93.06L1397.18 110.17L1380.07 110.17z" fill="rgba(9, 10, 24, 1)"></path><path d="M865.26 186.57L884.27 186.57L884.27 205.58L865.26 205.58z" fill="rgba(255, 255, 255, 1)"></path><path d="M354.81 537.78L392.12 537.78L392.12 575.09L354.81 575.09z" stroke="rgba(248, 162, 33, 1)"></path><path d="M445.84 239.78L455.73 239.78L455.73 249.67L445.84 249.67z" stroke="rgba(248, 162, 33, 1)"></path><path d="M1382.36 544.67a11.58 11.58 0 1 0-7.53 21.91z" stroke="rgba(255, 255, 255, 1)"></path><path d="M1125.27 470.5 a10.56 10.56 0 1 0 21.12 0 a10.56 10.56 0 1 0 -21.12 0z" fill="rgba(9, 10, 24, 1)"></path><path d="M468.36 41.41L507.8 41.41L507.8 80.85L468.36 80.85z" stroke="rgba(255, 255, 255, 1)"></path><path d="M1154.61 534.24L1195.66 534.24L1195.66 575.29L1154.61 575.29z" fill="rgba(255, 255, 255, 1)"></path><path d="M265.43 499.48L279.32 499.48L279.32 503.2L265.43 503.2z" fill="rgba(9, 10, 24, 1)"></path><path d="M825.16 155.11 a29.87 29.87 0 1 0 59.74 0 a29.87 29.87 0 1 0 -59.74 0z" stroke="rgba(9, 10, 24, 1)"></path><path d="M592.88 235.59 a39.34 39.34 0 1 0 78.68 0 a39.34 39.34 0 1 0 -78.68 0z" fill="rgba(248, 162, 33, 1)"></path><path d="M256.07 114.85a7.11 7.11 0 1 0-4.18 13.59z" stroke="rgba(248, 162, 33, 1)"></path><path d="M-7.78 265.03a52.67 52.67 0 1 0 85.97 60.88z" fill="rgba(248, 162, 33, 1)"></path><path d="M263.4 450.14 a5.71 5.71 0 1 0 11.42 0 a5.71 5.71 0 1 0 -11.42 0z" fill="rgba(255, 255, 255, 1)"></path></g><defs><mask id="SvgjsMask1019"><rect width="1440" height="560" fill="#ffffff"></rect></mask></defs></svg>