<?xml version="1.0" encoding="utf-8"?>
<!-- Generator: Adobe Illustrator 26.0.1, SVG Export Plug-In . SVG Version: 6.00 Build 0)  -->
<svg version="1.1" id="Layer_1" xmlns="http://www.w3.org/2000/svg" xmlns:xlink="http://www.w3.org/1999/xlink" x="0px" y="0px"
	 viewBox="0 0 486.2 145.7" style="enable-background:new 0 0 486.2 145.7;" xml:space="preserve">
<style type="text/css">
	.st0{fill:none;}
	.st1{fill:#F8A221;}
	.st2{fill:#FFF9F9;}
</style>
<path class="st0" d="M17.9,38.6L459.4,1.5c9.9-0.8,18.6,6.5,19.4,16.4l5.9,69.8c0.8,9.9-6.5,18.6-16.4,19.4L26.8,144.2
	c-9.9,0.8-18.6-6.5-19.4-16.4L1.5,58C0.7,48.1,8,39.4,17.9,38.6z"/>
<g transform="matrix(0.9964885711669922,-0.08372905850410461,0.08372905850410461,0.9964885711669922,-3.3580559589942274,0.14083013386192533)">
	<path class="st1" d="M461,146.1l-22.9,0l-19.6-15.9l1.3,15.9l-401.8,0c-9.9,0-18-8.1-18-18l0-70c0-9.9,8.1-18,18-18l390.2,0
		L426,60.7l2-20.6l33,0c9.9,0,18,8.1,18,18l0,70C479,138.1,470.9,146.1,461,146.1z"/>
	<g>
		<path class="st2" d="M87.2,62.1l-21.2,0l0,22.3l0,17.5l0,23.2l21.2,0L87.2,62.1z M46.4,101.9l0-17.5l0-22.3l-21.2,0l0,63l21.2,0
			L46.4,101.9z M67.4,84.4l-1.4,0l-19.6,0l-1.4,0l0,17.5l1.4,0l19.6,0l1.4,0L67.4,84.4z M149.5,85.5l-26.6,0l-1.4,0l0,15.3l1.4,0
			l26.6,0L149.5,85.5z M154.4,109.1l-31.5,0l0-8.3l0-15.3l0-7.4l30.3,0l0-16l-51.2,0l0,63l52.4,0L154.4,109.1z M207.5,92.6
			l21.9-30.4l-22.9,0l-10.4,15.8l-10.7-15.8l-23.9,0l22,31.2l-22.8,31.8l24.2,0l10.6-16.8l10.9,16.8l24.3,0L207.5,92.6z M283.4,62.1
			L268,98.9l-15-36.8l-22.9,0l26.6,63l20.9,0l26.6-63L283.4,62.1z M378.6,93.6c0-4.8-0.9-9.1-2.7-13.1c-1.8-4-4.2-7.5-7.4-10.4
			c-3.2-3-6.9-5.3-11.3-6.9c-4.3-1.6-9.1-2.4-14.2-2.4c-5.1,0-9.8,0.8-14.2,2.4c-4.4,1.6-8.1,3.9-11.3,6.9c-3.2,3-5.7,6.5-7.4,10.4
			c-1.8,4-2.6,8.4-2.6,13.1c0,4.8,0.9,9.2,2.7,13.2c1.8,4,4.2,7.5,7.4,10.5c3.2,3,6.9,5.3,11.3,6.9c4.3,1.6,9.1,2.4,14.2,2.4
			c5.1,0,9.9-0.8,14.2-2.4c4.3-1.6,8.1-3.9,11.2-6.9c3.2-3,5.7-6.5,7.4-10.5C377.7,102.7,378.6,98.3,378.6,93.6z M356.1,100.2
			c-0.7,1.9-1.7,3.6-3,4.9c-1.3,1.4-2.8,2.4-4.5,3.1c-1.7,0.7-3.6,1.1-5.5,1.1c-2,0-3.8-0.4-5.5-1.1c-1.7-0.7-3.2-1.8-4.5-3.1
			c-1.3-1.3-2.3-3-3-4.9c-0.7-1.9-1.1-4.2-1.1-6.6c0-2.5,0.4-4.7,1.1-6.6c0.7-1.9,1.7-3.6,3-5c1.3-1.3,2.8-2.4,4.5-3.1
			c1.7-0.7,3.6-1.1,5.5-1.1c2,0,3.8,0.4,5.5,1.1c1.7,0.7,3.2,1.8,4.5,3.1c1.3,1.4,2.3,3,3,4.9c0.7,2,1.1,4.2,1.1,6.6
			C357.1,96.1,356.8,98.3,356.1,100.2z M452.9,125.1l0-63l-20.7,0l0,28.6l-23.9-28.6l-17.5,0l0,63l20.7,0l0-28.6l23.9,28.6
			L452.9,125.1z"/>
	</g>
</g>
</svg>
