<svg xmlns="http://www.w3.org/2000/svg" xmlns:xlink="http://www.w3.org/1999/xlink" fill="none" version="1.1" width="177" height="29.99998664855957" viewBox="0 0 177 29.99998664855957"><g transform="matrix(1,0,0,-1,0,59.99997329711914)"><g><path d="M27.5086,60.000017166137695L27.5086,30.000017166137695L22.3868,30.000017166137695L22.3868,42.34691716613769L5.11918,42.34691716613769L5.11918,30.000017166137695L0,30.000017166137695L0,60.000017166137695L5.11918,60.000017166137695L5.11918,47.650017166137694L22.3868,47.650017166137694L22.3868,60.000017166137695L27.5086,60.000017166137695Z" fill="#FFF9F9" fill-opacity="1" style="mix-blend-mode:passthrough"/></g><g><path d="M38.94694296875,48.7982171661377C39.490042968750004,49.3605171661377,40.22677296875,49.6765171661377,40.99479296875,49.6765171661377L48.95829296875,49.6765171661377C49.72629296875,49.6765171661377,50.46299296875,49.3605171661377,51.00619296875,48.7982171661377L51.08289296875,48.7188171661377C51.62599296875,48.1563171661377,51.93109296875,47.39371716613769,51.93109296875,46.59841716613769L51.93109296875,45.0652171661377L38.09874296875,45.0652171661377L38.09874296875,46.677917166137696C38.09874296875,47.473217166137694,38.40383296875,48.23581716613769,38.94694296875,48.7982171661377ZM39.30325296875,36.1052571661377L38.94694296875,36.4741671661377C38.40383296875,37.0364871661377,38.09874296875,37.7992771661377,38.09874296875,38.5944671661377L38.09874296875,39.838327166137695L56.976792968750004,39.838327166137695L56.976792968750004,48.76361716613769C56.976792968750004,49.5589171661377,56.671592968750005,50.3216171661377,56.128492968749995,50.88391716613769L53.097092968750005,54.02261716613769C52.55409296875,54.5848171661377,51.817692968749995,54.900717166137696,51.04979296875,54.9008171661377L38.89506296875,54.9033171661377C38.12559296875,54.9034171661377,37.38770296875,54.58641716613769,36.84419296875,54.022517166137696L33.89612996875,50.9629171661377C33.35446196875,50.4008171661377,33.05029296875,49.6392171661377,33.05029296875,48.8451171661377L33.05029296875,36.429817166137695C33.05029296875,35.634347166137694,33.35524796875,34.871837166137695,33.89861896875,34.3093871661377C34.85711296875,33.31765716613769,36.30409296875,31.820307166137695,37.21543296875,30.877273166137694C37.75854296875,30.315224166137696,38.49434296875,30.000017166137695,39.26224296875,30.000017166137695L52.76699296875,30.000017166137695L57.81549296875,35.2270571661377L41.35110296875,35.2270571661377C40.58307296875,35.2270571661377,39.84635296875,35.5429371661377,39.30325296875,36.1052571661377Z" fill="#FFF9F9" fill-opacity="1" style="mix-blend-mode:passthrough"/></g><g><path d="M90.70018762207032,29.99998664855957L83.60928762207031,29.99998664855957L75.01978762207031,38.89349664855957L66.42749762207032,29.99998664855957L59.33918762207031,29.99998664855957L71.47288762207032,42.565786648559566L59.54982962207031,54.91058664855957L66.64076762207031,54.91058664855957L75.01978762207031,46.235286648559565L83.39598762207031,54.91058664855957L90.4896876220703,54.91058664855957L78.56388762207031,42.565786648559566L90.70018762207032,29.99998664855957Z" fill="#FFF9F9" fill-opacity="1" style="mix-blend-mode:passthrough"/></g><g><path d="M176.09004201660156,46.83258664855957L176.09004201660156,29.99998664855957L171.31784201660156,29.99998664855957L171.31784201660156,46.44628664855957C171.31784201660156,48.45008664855957,169.74724201660155,50.07568664855957,167.81244201660155,50.07568664855957L157.94711201660155,50.07568664855957L157.94711201660155,30.01613244855957L153.17494201660156,30.01613244855957L153.17494201660156,55.016786648559574L168.18834201660155,55.016786648559574C172.55054201660155,55.016786648559574,176.09004201660156,51.35248664855957,176.09004201660156,46.83258664855957Z" fill="#FFF9F9" fill-opacity="1" style="mix-blend-mode:passthrough"/></g><g><path d="M95.82880433105468,52.99686502685547L91.02531433105469,52.99686502685547L92.62385433105469,54.83706502685547L97.87233433105469,54.86916502685547L98.62426433105469,53.525265026855465L104.79811433105469,42.48960502685547L113.83681433105468,58.70256502685547L116.65061433105468,58.70256502685547L104.81121433105469,37.70946502685547L95.82880433105468,52.99686502685547Z" fill="#F8A221" fill-opacity="1" style="mix-blend-mode:passthrough"/></g><g><path d="M120.83173286132813,58.70248664855957L108.17493286132813,36.24479664855957L104.69303286132812,29.99998664855957L101.21113286132812,36.24479664855957L93.57843286132812,49.930786648559575L88.27493286132812,49.952186648559575L89.98757286132812,51.923886648559574L95.14081286132813,51.923886648559574L104.72713286132813,35.614386648559574L117.74283286132813,58.70248664855957L120.83173286132813,58.70248664855957Z" fill="#F8A221" fill-opacity="1" style="mix-blend-mode:passthrough"/></g><g><path d="M142.22130805664062,40.68328592651367C142.22130805664062,40.56527592651367,142.1584080566406,40.45800592651367,142.06280805664062,40.401715926513674L135.29552805664062,36.35655592651367C135.19989805664062,36.297425926513675,135.07807805664063,36.297425926513675,134.98243805664063,36.35655592651367L128.21520805664062,40.401715926513674C128.11957805664062,40.45800592651367,128.05931805664062,40.565285926513674,128.05931805664062,40.68328592651367L128.05931805664062,48.77105592651367C128.05931805664062,48.88905592651367,128.11956805664062,48.99355592651367,128.21520805664062,49.05255592651367L134.98243805664063,53.09775592651367C135.02828805664063,53.12735592651367,135.08330805664062,53.14075592651368,135.1370180566406,53.14075592651368C135.19203805664063,53.14075592651368,135.24573805664062,53.12735592651367,135.29551805664062,53.09775592651367L142.06270805664062,49.05255592651367C142.1584080566406,48.99355592651367,142.22120805664062,48.88905592651367,142.22120805664062,48.77105592651367L142.22130805664062,40.68328592651367ZM143.92550805664064,50.216855926513674L135.33743805664062,55.35105592651367C135.27717805664062,55.38865592651367,135.20774805664064,55.407355926513674,135.1370180566406,55.407355926513674C135.07020805664064,55.407355926513674,135.00076805664062,55.38865592651367,134.93789805664062,55.35105592651367L126.35242905664063,50.216855926513674C126.22798305664062,50.14445592651367,126.15200805664062,50.007555926513675,126.15200805664062,49.85995592651367L126.15200805664062,39.59417592651367C126.15200805664062,39.44674592651367,126.22798305664062,39.30717592651367,126.35242905664063,39.237475926513675L134.93789805664062,34.103207226513675C135.06234805664062,34.02806772651367,135.21823805664062,34.02806772651367,135.33743805664062,34.103207226513675L143.92550805664064,39.237475926513675C144.04730805664062,39.30718592651367,144.12720805664063,39.446755926513674,144.12720805664063,39.59417592651367L144.12720805664063,49.85995592651367C144.12720805664063,50.007555926513675,144.04730805664062,50.14445592651367,143.92550805664064,50.216855926513674Z" fill="#F8A221" fill-opacity="1" style="mix-blend-mode:passthrough"/></g><g><path d="M145.83033544921875,39.135915830688475C145.83033544921875,38.59406583068848,145.54743544921874,38.08708583068848,145.09413544921875,37.816095830688475L135.73843544921874,32.22584583068848C135.51313544921874,32.088995830688475,135.25633544921874,32.021995830688475,135.00223544921874,32.021995830688475C134.74943544921874,32.021995830688475,134.49523544921874,32.088995830688475,134.26733544921876,32.22584583068848L124.91425544921876,37.816095830688475C124.46101544921875,38.08708583068848,124.17806544921875,38.59406583068848,124.17806544921875,39.135915830688475L124.17806544921875,50.31908583068848C124.17806544921875,50.86098583068848,124.46100544921875,51.367985830688475,124.91425544921876,51.638985830688476L134.26733544921876,57.22918583068848C134.72323544921875,57.50008583068848,135.28523544921876,57.50008583068848,135.73843544921874,57.22918583068848L145.09413544921875,51.638985830688476C145.54743544921874,51.367985830688475,145.83033544921875,50.86098583068848,145.83033544921875,50.31908583068848L145.83033544921875,39.135915830688475ZM146.97263544921876,52.451685830688476L135.47903544921874,59.32138583068848C135.18433544921874,59.49858583068848,134.82143544921874,59.49858583068848,134.52543544921875,59.32138583068848L123.03316544921876,52.451685830688476C122.73842444921875,52.274685830688476,122.55633544921875,51.95008583068848,122.55633544921875,51.59598583068848L122.55633544921875,37.85637583068848C122.55633544921875,37.50495583068847,122.73842444921875,37.177685830688475,123.03316544921876,37.00326583068848L134.52543544921875,30.130900830688475C134.82143544921874,29.956482930688477,135.18433544921874,29.956482930688477,135.47903544921874,30.130900830688475L146.97263544921876,37.00326583068848C147.26743544921874,37.177685830688475,147.44943544921875,37.50496583068848,147.44943544921875,37.85637583068848L147.44943544921875,51.59598583068848C147.44943544921875,51.95008583068848,147.26743544921874,52.274685830688476,146.97263544921876,52.451685830688476Z" fill="#F8A221" fill-opacity="1" style="mix-blend-mode:passthrough"/></g></g></svg>